<?xml version="1.0" standalone="no"?>
<!DOCTYPE svg PUBLIC "-//W3C//DTD SVG 20010904//EN"
 "http://www.w3.org/TR/2001/REC-SVG-20010904/DTD/svg10.dtd">
<svg version="1.0" xmlns="http://www.w3.org/2000/svg"
 width="50.000000pt" height="50.000000pt" viewBox="0 0 50.000000 50.000000"
 preserveAspectRatio="xMidYMid meet">

<g transform="translate(0.000000,50.000000) scale(0.100000,-0.100000)"
fill="#000000" stroke="none">
<path d="M81 456 c-44 -24 -50 -51 -51 -203 0 -217 5 -223 219 -223 215 0 221
6 221 220 0 155 -9 187 -55 208 -37 17 -302 16 -334 -2z m344 -31 c24 -23 25
-28 25 -175 0 -147 -1 -152 -25 -175 -23 -24 -28 -25 -175 -25 -147 0 -152 1
-175 25 -24 23 -25 28 -25 175 0 147 1 152 25 175 23 24 28 25 175 25 147 0
152 -1 175 -25z"/>
<path d="M171 364 c-34 -25 -61 -51 -61 -57 0 -6 10 -21 21 -34 l22 -22 -24
-20 c-20 -16 -22 -23 -13 -38 18 -30 113 -103 134 -103 20 0 115 73 134 102 8
13 5 22 -12 41 l-22 24 20 18 c11 10 20 24 20 32 0 17 -117 103 -140 103 -10
0 -45 -21 -79 -46z m146 -14 c29 -23 53 -44 53 -48 0 -4 -9 -13 -21 -20 -17
-11 -25 -10 -53 8 -42 25 -58 25 -87 0 -20 -16 -21 -19 -7 -20 9 0 20 5 23 10
10 16 38 11 65 -9 l24 -19 -24 -21 c-14 -11 -31 -20 -39 -21 -14 0 -120 80
-121 91 0 11 104 89 119 89 8 0 38 -18 68 -40z m-117 -135 c42 -31 58 -31 100
0 l34 25 21 -20 c13 -14 16 -23 9 -28 -6 -4 -31 -24 -56 -44 -25 -21 -51 -38
-58 -38 -7 0 -33 17 -58 38 -25 20 -50 40 -56 44 -6 4 -3 14 8 27 11 12 20 21
21 21 0 0 16 -11 35 -25z"/>
</g>
</svg>
